<?xml version="1.0" encoding="utf-8"?>
<!-- Generator: Adobe Illustrator 19.0.0, SVG Export Plug-In . SVG Version: 6.00 Build 0)  -->
<svg version="1.1" id="Layer_1" xmlns="http://www.w3.org/2000/svg" xmlns:xlink="http://www.w3.org/1999/xlink" x="0px" y="0px"
	 width="1400px" height="980px" viewBox="0 0 1400 980" enable-background="new 0 0 1400 980" xml:space="preserve">
<g id="Layer_2">
</g>
<rect id="XMLID_2_" fill="#FFC709" width="1400" height="980"/>
<rect id="XMLID_42_" x="646.2" y="606.1" fill="none" width="526.4" height="92.6"/>
<text id="XMLID_41_" transform="matrix(1 0 0 1 656.5425 621.6775)"><tspan x="0" y="0" font-family="'MyriadPro-Regular'" font-size="22px">L</tspan><tspan x="10.1" y="0" font-family="'MyriadPro-Regular'" font-size="22px">o</tspan><tspan x="22.2" y="0" font-family="'MyriadPro-Regular'" font-size="22px">r</tspan><tspan x="29.1" y="0" font-family="'MyriadPro-Regular'" font-size="22px">em ipsum dolor sit ame</tspan><tspan x="244.1" y="0" font-family="'MyriadPro-Regular'" font-size="22px">t</tspan><tspan x="251.3" y="0" font-family="'MyriadPro-Regular'" font-size="22px">, </tspan><tspan x="260.5" y="0" font-family="'MyriadPro-Regular'" font-size="22px">c</tspan><tspan x="270.2" y="0" font-family="'MyriadPro-Regular'" font-size="22px">onse</tspan><tspan x="314.2" y="0" font-family="'MyriadPro-Regular'" font-size="22px">c</tspan><tspan x="324.4" y="0" font-family="'MyriadPro-Regular'" font-size="22px">t</tspan><tspan x="331.5" y="0" font-family="'MyriadPro-Regular'" font-size="22px">etur adipiscing eli</tspan><tspan x="493.9" y="0" font-family="'MyriadPro-Regular'" font-size="22px">t</tspan><tspan x="501.1" y="0" font-family="'MyriadPro-Regular'" font-size="22px">. </tspan><tspan x="18.4" y="26.4" font-family="'MyriadPro-Regular'" font-size="22px">P</tspan><tspan x="29.8" y="26.4" font-family="'MyriadPro-Regular'" font-size="22px">r</tspan><tspan x="36.8" y="26.4" font-family="'MyriadPro-Regular'" font-size="22px">oin hend</tspan><tspan x="118.7" y="26.4" font-family="'MyriadPro-Regular'" font-size="22px">r</tspan><tspan x="125.7" y="26.4" font-family="'MyriadPro-Regular'" font-size="22px">e</tspan><tspan x="136.7" y="26.4" font-family="'MyriadPro-Regular'" font-size="22px">r</tspan><tspan x="144" y="26.4" font-family="'MyriadPro-Regular'" font-size="22px">it dui quis f</tspan><tspan x="244.9" y="26.4" font-family="'MyriadPro-Regular'" font-size="22px">r</tspan><tspan x="252.2" y="26.4" font-family="'MyriadPro-Regular'" font-size="22px">in</tspan><tspan x="269.5" y="26.4" font-family="'MyriadPro-Regular'" font-size="22px">g</tspan><tspan x="281.7" y="26.4" font-family="'MyriadPro-Regular'" font-size="22px">illa rutrum. </tspan><tspan x="386" y="26.4" font-family="'MyriadPro-Regular'" font-size="22px">A</tspan><tspan x="399.4" y="26.4" font-family="'MyriadPro-Regular'" font-size="22px">liquam ut </tspan><tspan x="-1.9" y="52.8" font-family="'MyriadPro-Regular'" font-size="22px">egestas enim. Nulla eget o</tspan><tspan x="239" y="52.8" font-family="'MyriadPro-Regular'" font-size="22px">r</tspan><tspan x="245.9" y="52.8" font-family="'MyriadPro-Regular'" font-size="22px">ci quis sapien </tspan><tspan x="373.5" y="52.8" font-family="'MyriadPro-Regular'" font-size="22px">t</tspan><tspan x="380.7" y="52.8" font-family="'MyriadPro-Regular'" font-size="22px">empor iaculi</tspan><tspan x="494.6" y="52.8" font-family="'MyriadPro-Regular'" font-size="22px">s</tspan><tspan x="503" y="52.8" font-family="'MyriadPro-Regular'" font-size="22px">. </tspan></text>
<g id="XMLID_1_">
	<g id="XMLID_3_">
		<defs>
			<rect id="XMLID_36_" x="97.5" y="94" width="400" height="889"/>
		</defs>
		<clipPath id="XMLID_55_">
			<use xlink:href="#XMLID_36_"  overflow="visible"/>
		</clipPath>
		<g id="XMLID_105_" clip-path="url(#XMLID_55_)">
			<path id="XMLID_282_" d="M329.1,1194.6c7.4-2.7,17.5-7,24.8-2.7c6.6,3.9,8.3,13.1,13.2,18.7c6.9,7.9,19.3,14,28,19.5
				c14.8,9.5,31,19.2,38.2,35.4c1.2,2.8,2.1,6.3,0,8.6c-1.5,1.7-4.1,1.9-6.4,1.9c-23.6-0.2-47.2-6.5-67.9-18.1
				c-7-3.9-13.7-8.5-21.3-10.9c-6.1-1.9-13.2-2.9-16.8-8.2c-2.7-4-2.5-9.2-2-14c0.7-7.1,1.6-14.1,2.9-21.1c0.4-2.2,0.9-4.6,2.4-6.3
				C325.4,1196.1,327.3,1195.3,329.1,1194.6z"/>
			<path id="XMLID_281_" d="M248.9,1194.6c-7.4-2.7-17.5-7-24.8-2.7c-6.6,3.9-8.3,13.1-13.2,18.7c-6.9,7.9-19.3,14-28,19.5
				c-14.8,9.5-31,19.2-38.2,35.4c-1.2,2.8-2.1,6.3,0,8.6c1.5,1.7,4.1,1.9,6.4,1.9c23.6-0.2,47.2-6.5,67.9-18.1
				c7-3.9,13.7-8.5,21.3-10.9c6.1-1.9,13.2-2.9,16.8-8.2c2.7-4,2.5-9.2,2-14c-0.7-7.1-1.6-14.1-2.9-21.1c-0.4-2.2-0.9-4.6-2.4-6.3
				C252.6,1196.1,250.7,1195.3,248.9,1194.6z"/>
			<path id="XMLID_280_" fill="#004377" d="M257.3,415.4h16.1l18.1,0l29,0h16.9l-1.6-5.9l-1.8-6.8c0,0,0.1-0.4,0-1.1v0
				c-0.4-1.8-2.6-5-13.6-5.3c-0.9,0-1.8,0-2.8,0c-3.8,0.1-8.4-0.2-13.3-0.4c-3-0.2-6.1-0.4-9.3-0.6c-5.4-0.3-10.8-0.5-15.7-0.3
				c-1,0.1-2,0.1-3,0.2c-1.4,0.1-2.8,0.3-4.1,0.5c0,0,0,0,0,0c-2.3,0.4-4.3,0.9-6,1.7c-2.8,1.2-4.7,3-5.4,5.5l-2.4,9L257.3,415.4z"
				/>
			<path id="XMLID_28_" fill="#005088" d="M210,1191.5c17.7,11.4,52.8,12.9,52.8,12.9s-1.4-59.2-2.1-129.3
				c-0.2-20.4-0.3-41.7-0.4-62.8c-0.2-77.5,1.1-151.2,6.4-161.6c9.6-19.2,46.4-25.7,56.9,10.1c4.6,15.6,3.8,83.7,1.5,155.5
				c-0.9,29.3-2.1,59.2-3.3,86.4c-2.6,59.1-5.2,105.5-5.2,105.5s15.5,1.9,50.2-9.5c-2.3-14.1-2.2-42.9-0.7-78.4
				c1.3-30.5,3.6-65.9,6.2-101.3c6.2-81.6,14.3-162.6,16.7-181.1c4.3-33.5,5.7-88.8,5.9-95.7c0-0.5,0-0.7,0-0.7s-60.5-9.5-195,0
				c4.6,86.2,13.4,204.7,15.6,303.6C217,1104.8,215.9,1157.5,210,1191.5z"/>
			<path id="XMLID_19_" fill="#004377" d="M245.5,841c11-38,64-63,52-87c-0.4-0.7-0.8-1.5-1.3-2.4c20.9,1.1,42.1,1.3,59.8-0.4
				c20.5-2,34.7-7.2,39-9.1c-0.2,6.9-1.6,62.2-5.9,95.7c-2.4,18.5-10.6,99.5-16.7,181.1c-6.2-0.3-12.6-0.7-19.1-1.1
				c0.6-55.3,5.5-110.6-9.8-165.9c-5.3-18.7-25.7-16.8-42.9-16.1c-13.5-3.3-28.3,3.6-33.9,14.8c-5.2,10.5-6.5,84.2-6.4,161.6
				c-12.2-0.8-19.9-1.3-19.9-1.3S234.5,879,245.5,841z"/>
			<path id="XMLID_22_" fill="#003765" d="M343.5,852c15.3,55.3,10.4,110.6,9.8,165.9c-9.3-0.5-18.8-1.1-28.1-1.6
				c2.3-71.8,3-139.9-1.5-155.5c-4.4-14.9-13.4-22.5-23-24.9C317.8,835.2,338.2,833.3,343.5,852z"/>
			<path id="XMLID_24_" fill="#005088" d="M188.1,459.3c1.2,22.9,5.1,59.3,7.1,86.5c0.4,5.4,0.8,10.5,1,15c0.7,12.3,0.8,29,0.8,47.2
				c0,4.1-0.1,8.3-0.1,12.5c-0.2,18.6,4.5,120.9,4.5,120.9c0.2,0.2,46.8,7.6,94.8,10.2c20.9,1.1,42.1,1.3,59.8-0.4
				c24.7-2.4,40.2-9.4,40.4-9.8c0,0,4.3-39.9,5.1-81.9c0.3,0.3,0.5,0.5,0.8,0.8c-0.2-5.6-0.4-11.3-0.6-16.9c0-5.3-0.1-10.6-0.3-15.8
				c0-1.5-0.1-2.9-0.2-4.4c0-1-0.1-2.1-0.1-3.1c-0.5-14.5-0.8-28.2-1-39.4c0-2.4-0.1-4.7-0.1-6.9c0-4.8,0.1-8.7,0.3-11.5
				c1.3-22.6,10.9-86.3,10.7-108.4c0-0.7,0-1.4,0-2.1c-0.1-6.8-4.4-12.7-10.7-14.9l-67.5-23.3l-0.9-0.3l-16.2,0.2l-15.1,0.2
				l-37.9,0.5l-0.8,0.2l-12.7,2.8c0.1,0.1,0.1,0.3,0.2,0.4l-46.9,11.9c-6.6,1.4-11.6,6.9-12.4,13.8
				C189.6,446.9,187.7,451.2,188.1,459.3z"/>
			<path id="XMLID_31_" fill="#003664" d="M294.4,441.6v237.7c1.5,0.1,3.1,0.3,4.6,0.4v-238H294.4z"/>
			<path id="XMLID_32_" fill="#003664" d="M296.2,751.6c-0.5-0.9-1.1-1.8-1.8-2.8V803h4.6v-51.2L296.2,751.6z"/>
			<path id="XMLID_11_" fill="#003765" d="M206.8,660.5c-4.9-4.1-8.2-6.5-9.1-6.5l32.8-16.1c0,0,111.2-11.4,170.6-17.8
				c0,1,0.1,2.1,0.1,3.1c0,1.5,0.1,2.9,0.2,4.4c0.2,5.2,0.3,10.4,0.3,15.8c0.2,5.6,0.4,11.3,0.6,16.9c-0.3-0.3-0.5-0.5-0.8-0.8
				c-0.1,7.2-0.4,14.2-0.7,21.1C334.5,681.6,267.7,684.2,206.8,660.5z"/>
			<path id="XMLID_27_" fill="#003664" d="M294.4,679.3v69.5c0.7,1,1.3,1.9,1.8,2.8l2.8,0.1v-72.1
				C297.4,679.5,295.9,679.4,294.4,679.3z"/>
			<path id="XMLID_29_" fill="#004377" d="M299,679.6v72.1c20,1,40.1,1.1,57-0.5c24.7-2.4,40.2-9.4,40.4-9.8c0,0,2.9-27.4,4.4-60.8
				C366.7,681.2,332.5,682.1,299,679.6z"/>
			<path id="XMLID_30_" fill="#004377" d="M206.8,660.5c21.1,17.4,72.1,65.5,87.6,88.3v-69.5C264.4,676.8,234.9,671.5,206.8,660.5z"
				/>
			<path id="XMLID_20_" fill="#004377" d="M193.7,489l1.6,56.8L197,608c0,0,23.2,27.3,25.2,26.6c2-0.7,131.3-9.3,151.3-10
				c8.5-0.3,18.8-0.3,27.7-1.4c-0.5-15.7-0.9-30.6-1.1-42.6c0-2.4-0.1-4.7-0.1-6.9c0-4.8,0.1-8.7,0.3-11.5
				c1.3-22.6,10.9-86.3,10.7-108.4c0-0.7,0-1.4,0-2.1c-0.1-6.8-4.4-12.7-10.7-14.9l-67.5-23.3l-0.9-0.3l-16.2,0.2l-15.1,0.2
				c1.5,12.7,2.9,25.6,2.9,25.6s43.3,36.7,58,82c14.7,45.3,10,42,10,42l-16.7,31.3l-100.5,4.5l-31.5,4.2L193.7,489z"/>
			<path id="XMLID_275_" fill="#FCBA7C" d="M257.3,415.4c0,0,23.9,27.7,39.7,26.5c0.7-0.1,1.3-0.1,1.9-0.3c2.8-0.7,5.6-1.6,8.2-2.8
				l1.6-0.7c1-0.5,2-1,3-1.5c0.6-0.3,1.2-0.6,1.7-1c0.9-0.5,1.8-1.1,2.7-1.6c0,0,0,0,0,0c0.1-0.1,0.2-0.1,0.2-0.2
				c0.5-0.3,0.9-0.6,1.4-0.9c2.4-1.6,4.6-3.2,6.6-4.8c0.4-0.3,0.8-0.6,1.2-1c1.5-1.3,3-2.5,4.2-3.8c4.3-4.1,7-7.4,7.4-7.9l0,0
				c0,0,0,0,0,0c0,0,0,0,0,0s-4-1.8-8.8-6.9c-0.1-0.2-0.3-0.3-0.5-0.5c-0.4-0.5-0.9-1-1.3-1.5c-1.8-2.1-3.6-4.7-5.3-7.8
				c-0.4-0.7-0.8-1.5-1.1-2.4c-0.3-0.6-0.5-1.3-0.7-2c-4.4-14.5-2.2-42.6-2.2-42.6l-40.1-5.9c0,0,0.2,15.6,0,29.7c0,0.6,0,1.3,0,1.9
				c0,0.6,0,1.3,0,2c0,0.6,0,1.2-0.1,1.7c0,1.1-0.1,2.1-0.1,3.1c0,0.5,0,1-0.1,1.5c0,0.1,0,0.2,0,0.3c0,0.3,0,0.6,0,0.9
				c-0.1,1.4-0.1,2.7-0.2,3.8c-0.1,0.8-0.1,1.6-0.2,2.3c-0.1,0.7-0.2,1.5-0.4,2.2C273.3,406.5,257.3,415.4,257.3,415.4z"/>
			<path id="XMLID_274_" fill="#E3A064" d="M276.8,390.5c0.8,1.4,1.6,2.9,2.4,4.3c3.9,7,8.1,13.8,12.3,20.6
				c3.6,5.7,7.3,11.2,11,16.8c1.5,2.2,3.1,4.5,4.6,6.7l1.6-0.7c1-0.5,2-1,3-1.5c0.6-0.3,1.2-0.6,1.7-1c0.9-0.5,1.8-1.1,2.7-1.7
				c0.1-0.1,0.2-0.1,0.2-0.2c0.5-0.3,0.9-0.6,1.4-0.9c2.4-1.6,4.5-3.2,6.6-4.8c0.4-0.3,0.8-0.6,1.2-1c1.5-1.3,2.9-2.5,4.2-3.8
				c4.3-4.1,7-7.4,7.4-7.9l0,0c0,0,0,0,0,0c0,0,0,0,0,0s-4-1.8-8.8-6.9c-0.1-0.2-0.3-0.3-0.5-0.5c-0.4-0.5-0.9-1-1.3-1.5
				c-1.8-2.1-3.6-4.7-5.3-7.8c-0.4-0.7-0.8-1.5-1.1-2.4c-0.3-0.6-0.5-1.3-0.7-2c-4.4-14.5-2.2-42.6-2.2-42.6l-40.1-5.9
				c0,0,0.2,15.6,0,29.7c0,0.6,0,1.3,0,1.9c0,0.6,0,1.3,0,2c0,0.6,0,1.2-0.1,1.7c0,1.1-0.1,2.1-0.1,3.1c0,0.5,0,1-0.1,1.5
				c0,0.1,0,0.2,0,0.3c0,0.3,0,0.6,0,0.9C277,388,276.9,389.3,276.8,390.5z"/>
			<path id="XMLID_273_" fill="#FCBA7C" d="M276.6,392.8c0.1-0.7,0.1-1.5,0.2-2.3c9.3,16.8,19.6,32.8,30.4,48.3
				c-2.6,1.1-5.3,2.7-8.2,2.8c-17.5,0.5-41.7-26.2-41.7-26.2S275.4,405.4,276.6,392.8z"/>
			<path id="XMLID_272_" fill="#FDC07D" d="M305.3,365.1c-1.9,0.1-3.9,0.2-5.9,0.2C300.6,365.3,302.6,365.2,305.3,365.1z"/>
			<path id="XMLID_271_" fill="#4B361B" d="M298.4,365.3L298.4,365.3c0,0,0.2,0,0.6,0C298.8,365.3,298.6,365.3,298.4,365.3z"/>
			<path id="XMLID_270_" fill="#003867" d="M337.4,415.3l-3.4-12.8c0,0-12.5,14.2-22.2,20.4c-9.7,6.1-14.8,19-14.8,19
				C302.9,442.1,318.7,442.5,337.4,415.3z"/>
			<path id="XMLID_269_" fill="#004377" d="M257.3,415.4C257.3,415.4,257.3,415.4,257.3,415.4c6.9,10.9,13.9,17.4,20.1,21.2
				c11.2,7,19.6,5.4,19.6,5.4s0,0,0,0c0-0.1-0.1-0.2-0.1-0.4c-0.8-2.2-5.4-13.1-14-18.6c0,0-0.1,0-0.2-0.1c-3-1.9-6.4-4.7-9.5-7.5
				c-1.5-1.4-2.9-2.7-4.3-4l-0.3-0.3c-0.8-0.8-1.5-1.5-2.2-2.2c-0.2-0.2-0.4-0.4-0.5-0.6c-2.4-2.5-4.2-4.5-4.9-5.3
				c-0.1-0.1-0.2-0.2-0.3-0.4l-2.4,9L257.3,415.4z"/>
			<path id="XMLID_265_" fill="#004377" d="M311.9,422.9c0,0,2.2,5.3,4.4,11.1c0,0,0,0,0,0c0.3,0.7,0.6,1.5,0.9,2.2
				c1,2.5,1.9,5,2.6,7c12.2-14.7,17.3-27.1,17.7-27.8c0,0,0,0,0,0l-1.4-5.9l-1.9-8v0c-1.6,1.9-3.3,3.7-5,5.6
				c-0.3,0.3-0.6,0.6-0.9,0.9c-2.6,2.7-5.3,5.3-7.6,7.4C315.9,419.6,312.3,422.6,311.9,422.9C311.9,422.9,311.9,422.9,311.9,422.9z"
				/>
			<path id="XMLID_264_" fill="#005894" d="M257.3,415.4C257.3,415.4,257.3,415.4,257.3,415.4c0.3,0.8,5.5,13.2,17.7,27.9
				c0.6-1.9,1.5-4.3,2.4-6.7c0.3-0.7,0.5-1.4,0.8-2.1c0.1-0.2,0.2-0.5,0.3-0.7c2.2-5.6,4.4-10.8,4.4-10.8s-0.1,0-0.2-0.1
				c-0.8-0.6-4.6-3.4-9.3-7.5c-1.4-1.2-3-2.6-4.5-4l-0.3-0.3c-0.7-0.7-1.5-1.4-2.2-2.2c-0.2-0.2-0.4-0.4-0.6-0.6
				c-1.7-1.7-3.3-3.5-4.9-5.3c-0.1-0.1-0.2-0.2-0.3-0.4l-2.4,9L257.3,415.4z"/>
			<path id="XMLID_256_" fill="#FCBA7C" d="M222.2,254.7c0,10.1-1.2,73.8,4.3,91.6c5.4,17.8,42.8,39.6,69.9,39.9c0.7,0,1.4,0,2.1,0
				v-69.3c0,0,17-1.5,9-14.2c-8-12.7-9.8-28.7-9.8-28.7l0.7-67.1l20.7-19.6l49.3,11.3c0,0,0,0,0,0c-16.2-23.8-51.3-25.8-73.3-26.2
				c-22-0.4-63.7,19.5-68.2,25.5C215.4,213.2,222.2,244.6,222.2,254.7z"/>
			<path id="XMLID_255_" fill="#E3A064" d="M298.5,316.9v69.3c0.1,0,0.3,0,0.4,0c0.1,0,0.2,0,0.3,0c29.3-2.7,68.2-15.3,72.8-39.9
				c5.3-28.6,4.4-94.9,4.4-94.9c2.3-37.8-5.6-49.7-7.8-52.8l-49.3-11.3L298.5,207l-0.7,67.1c0,0,1.8,16,9.8,28.7
				C315.5,315.4,298.5,316.9,298.5,316.9z"/>
			<path id="XMLID_254_" fill="#FCBA7C" d="M226.3,283.8c0,0,0.4-19.1-14.3-20.2c-14.7-1.1-13.4,15.9-9.1,27.3
				c4.3,11.4,24.1,15.5,24.1,15.5L226.3,283.8z"/>
			<path id="XMLID_253_" fill="#E3A064" d="M371,278.7c0,0-0.4-19.1,14.3-20.2c14.7-1.1,13.4,15.9,9.1,27.3
				c-4.3,11.4-24.1,15.5-24.1,15.5L371,278.7z"/>
			<ellipse id="XMLID_252_" cx="335.3" cy="282.4" rx="6.9" ry="8.3"/>
			<ellipse id="XMLID_251_" fill="#FFFFFF" cx="332.7" cy="277.7" rx="2.2" ry="2.7"/>
			<ellipse id="XMLID_250_" cx="258.8" cy="282.4" rx="6.9" ry="8.3"/>
			<ellipse id="XMLID_249_" fill="#FFFFFF" cx="256.2" cy="277.7" rx="2.2" ry="2.7"/>
			<path id="XMLID_247_" fill="#D58958" d="M297.7,274c0,0-0.8,10.9,5,25.2c2.8,6.9,3.5,14.4,0.9,15.4s-8,1.8-8,1.8s15,2.7,14.2-5.4
				C308.8,301.3,301.6,294.7,297.7,274z"/>
			<path id="XMLID_246_" d="M322.2,250.7c5.9,0.1,20.1,1.2,37.7,7.5c1.6,0.6,3.4-0.3,3.9-1.9l0,0c0.4-1.3-0.1-2.8-1.4-3.5
				c-4.8-2.8-18.3-9.5-39.9-11.1c-1.8-0.1-3.3,1.3-3.3,3v2.9C319.2,249.4,320.5,250.7,322.2,250.7z"/>
			<path id="XMLID_245_" d="M275.6,250.7c-5.9,0.1-20.1,1.2-37.7,7.5c-1.6,0.6-3.4-0.3-3.9-1.9l0,0c-0.4-1.3,0.1-2.8,1.4-3.5
				c4.8-2.8,18.3-9.5,39.9-11.1c1.8-0.1,3.3,1.3,3.3,3v2.9C278.5,249.4,277.2,250.7,275.6,250.7z"/>
			<path id="XMLID_38_" d="M386.4,192.3c-12.1-39.7-95.7-47.5-116.6-48.1c-59.9-1.8-45.2,40.7-45.2,40.7s-0.8,0.2-2.1,0.6
				c1,0.4,2,0.4,2.8-0.4c-0.8,0.8-11.7,9.9-15.3,17.1c0,14.7,12.5,96.8,12.5,96.8l3.7-68.7c0.7-13.1,11.9-23.2,25-22.5
				c16.6,0.9,32.8,10,47.9,9.8c16.9-0.2,31.7-7.9,47.3-9.7c13.6-1.6,25.7,8.9,26.3,22.6l3.1,68.5c0,0,12.1-85.9,12.1-96.8
				C387.9,198.8,387.3,195.4,386.4,192.3z"/>
			<g id="XMLID_227_">
				<path id="XMLID_228_" fill="#003050" d="M368.5,638.2l-12.9-2.2c-0.9-0.2-1.5-1-1.3-1.9l1.3-7.4c0.2-0.9,1-1.5,1.9-1.3l12.9,2.2
					c0.9,0.2,1.5,1,1.3,1.9l-1.3,7.4C370.3,637.7,369.4,638.3,368.5,638.2z"/>
			</g>
			<path id="XMLID_198_" fill="#D58958" d="M267.7,333.4c19.2,11.2,39.9,12.4,62.7,0C309,339.3,288.1,339.2,267.7,333.4z"/>
			<path id="XMLID_217_" fill="#D58958" d="M289.9,352.4h17.2C307.1,352.4,301.7,359.1,289.9,352.4z"/>
			<path id="XMLID_317_" fill="#EFEFF0" d="M194.2,608.5c1-20.3,1.5-36.1,1.2-45.1C195.4,563.4,197.4,571.1,194.2,608.5z"/>
			<path id="XMLID_213_" fill="#E3A064" d="M258.4,608.2c0,0.2-0.1,0.4-0.1,0.6h-0.1c-12.7,0.8-25.3,1.3-36.8,1.2
				c1-0.3,1.9-0.7,2.9-1.1c5.9-2.2,11.7-4.6,17.7-6.6c0.6-0.2,1.2-0.4,1.8-0.6c0.6-0.2,1.2-0.4,1.8-0.6c2.9-0.8,5.8-1.6,8.7-2.1
				l0.4,7.2C255.9,607,257.1,607.6,258.4,608.2z"/>
			<path id="XMLID_214_" fill="#FCBA7C" d="M263.9,591.9c-1.4,3.1-3.4,8.2-5.5,16.3c-1.3-0.6-2.5-1.2-3.8-1.8
				c-3.1-1.5-6.2-3-9.3-4.6c0,0,0-0.1,0-0.1c0-0.1,0.1-0.2,0.1-0.4c-0.6,0.2-1.2,0.4-1.8,0.6c-0.6,0.2-1.2,0.4-1.8,0.6
				c-6,2-11.9,4.4-17.7,6.6c-1,0.4-1.9,0.7-2.9,1.1c0,0,0,0,0,0c-0.1,0-0.2,0.1-0.4,0.1c-1.2,0.4-2.3,0.8-3.5,1.2
				c0.4-0.4,0.8-0.9,1.2-1.3c6.8-7.2,15.3-14.9,22.8-18.6c7-3.4,12.1-3.6,12.1-3.6C257.2,589.2,260.6,590.6,263.9,591.9z"/>
			<path id="XMLID_211_" fill="#FFFFFF" d="M221.3,610c-0.1,0-0.2,0.1-0.4,0.1c-1.2,0.4-2.3,0.8-3.5,1.2c0.4-0.4,0.8-0.9,1.2-1.3
				C219.6,610,220.5,610,221.3,610z"/>
			<path id="XMLID_18_" fill="#005088" d="M154,631.3c0.5,1.8,1.1,3.4,1.8,4.9c4.8,9.7,15.4,13.6,32.2,17c1.1,0.2,2.3,0.4,3.6,0.5
				c13.1,1.4,39-0.7,66.7-3.8c39-4.4,81.6-11.1,97.6-13.7c4.2-0.7,6.5-1.1,6.5-1.1l-5-18.3l-4.8-17.7c0,0-47.9,6.8-94.4,9.6
				c-23.9,1.5-47.4,1.9-64-0.1v-0.1c3.2-37.4,4.9-47,4.8-47.5c-1-18.8-3.4-46.9-5.3-72c-1.6-21.5-2.9-40.7-2.4-50.2
				c-29.3,41.1-37.9,158.5-38.4,180.2C152.7,623.8,153.1,627.8,154,631.3z"/>
			<path id="XMLID_14_" fill="#004377" d="M194.2,608.6v-0.1c3.2-37.4,4.9-47,4.8-47.5c-1-18.8-3.4-46.9-5.3-72l-23.2,127
				L194.2,608.6z"/>
			<path id="XMLID_15_" fill="#004377" d="M154,631.3c0.5,1.8,1.1,3.4,1.8,4.9c4.8,9.7,15.4,13.6,32.2,17c1.1,0.2,2.3,0.4,3.6,0.5
				c13.1,1.4,39-0.7,66.7-3.8c39-4.4,81.6-11.1,97.6-13.7c4.2-0.7,6.5-1.1,6.5-1.1l-5-18.3C330.3,621.4,201.2,642.3,154,631.3z"/>
			<path id="XMLID_23_" fill="#004377" d="M255.2,622.9c19.4,8,89.1,21.5,129.2,24.7c4,0.3,7.8,0.5,11.1,0.6
				c3.4,0.1,6.5,0.1,9.5,0.1c29.4-0.4,39.9-7.8,42.9-25.5c3.3-19.4-11.9-155.5-40.7-181.3c0.4,21.4-9.7,93-11.1,115.9
				c-0.3,5.2,5.7,24.5,6.7,47.5c-18.9-0.1-38.3-1.6-56.4-3.6c-44.3-5.1-80.3-13.6-80.3-13.6s-3.1,4-6.9,17.4
				c-0.3,1.1-0.6,2.3-0.9,3.6C257.2,612.8,256.2,617.5,255.2,622.9z"/>
			<path id="XMLID_17_" fill="#003765" d="M402.8,605l-1.8,13l18.2-4.6l-12-171.8c0.4,21.4-9.7,93-11.1,115.9
				C395.8,562.7,401.8,582,402.8,605z"/>
			<path id="XMLID_16_" fill="#005088" d="M259.2,605.2c22.7,4.8,54.8,10.2,92.5,12.6c76.2,4.8,78.8-12.8,78.8-12.8h-27.7
				c-18.9-0.1-38.3-1.6-56.4-3.6c-44.3-5.1-80.3-13.6-80.3-13.6S263,591.8,259.2,605.2z"/>
			<g id="XMLID_5_">
				<path id="XMLID_25_" fill-rule="evenodd" clip-rule="evenodd" fill="#B5B7BB" d="M372.6,522.7c0,0-0.2-0.3-0.3-0.6l-1.1-3.8
					l10.7-2.9l1.2,4.2l21.4,74.9l4,5l-14.1,4.2l-0.6-6.5L372.6,522.7z"/>
				<polygon id="XMLID_21_" fill-rule="evenodd" clip-rule="evenodd" fill="#DEDFE1" points="374.5,518.3 398,600.8 394,602.2 
					393.8,597.1 371.2,518.3 371.1,518.2 370,514 373,513.2 				"/>
				<path id="XMLID_12_" fill-rule="evenodd" clip-rule="evenodd" fill="#C6CDCE" d="M394.9,590.3c0.4,1.4,1.8,2.1,3.2,1.8
					c1.4-0.4,2.1-1.8,1.8-3.2l-18.8-65.6c-0.4-1.4-1.8-2.1-3.2-1.8c-1.4,0.4-2.1,1.8-1.8,3.2L394.9,590.3z"/>
				<path id="XMLID_10_" fill-rule="evenodd" clip-rule="evenodd" fill="#C6CDCE" d="M381,497.7l-0.6,7.7c0,0,0.4,5.7-5.8,5.9
					c-6.2,0.3-6.6-3.9-6.6-3.9l-0.9-10.1c0,0-7.7,11.1-3.8,18.2c0.5,0.9,1.1,1.6,1.9,2.3c7.7,6.6,19.7-1.6,19.7-1.6
					S390.1,506.4,381,497.7"/>
				<path id="XMLID_9_" fill-rule="evenodd" clip-rule="evenodd" fill="#DEDFE1" d="M372.7,511.3c-0.3,0-0.6,0.1-0.9,0.1
					c-6.2,0.3-6.6-3.9-6.6-3.9l-0.5-5.8c1.2-2.6,2.4-4.3,2.4-4.3l0.9,10.1C368,507.5,368.3,510.7,372.7,511.3"/>
				<path id="XMLID_8_" fill-rule="evenodd" clip-rule="evenodd" fill="#DEDFE1" d="M382,516.2c0,0,4.1-7.7-1.2-15.5l0.2-3.1
					c9.1,8.7,3.8,18.6,3.8,18.6s-7,4.8-13.8,4.1C376.8,519.8,382,516.2,382,516.2"/>
			</g>
			<path id="XMLID_322_" fill="#E3A064" d="M428.7,599.5l-23.9,0.3l-2.1,3l-1.6,2.2c-6.7-0.1-13.4-0.3-20.2-0.7
				c4-1.4,7.9-3.2,11.5-5.6c3.1-2.3,6.5-3.7,9.9-4.3c8.2-1.4,17.2,1.1,26.4,3.2L428.7,599.5z"/>
			<path id="XMLID_320_" fill="#FCBA7C" d="M416.4,575.6l16.7,5.2l-0.2,5.5l-15.2-1.2l-11.9,3.4l0,0.9l22.8,4.7l0,3.6
				c-9.2-2.1-18.2-4.6-26.4-3.2c-3.5,0.6-6.8,1.9-9.9,4.3c-3.6,2.4-7.5,4.2-11.5,5.6c-8.7-0.5-17.4-1.2-25.8-2c2.8-1,5.6-2,8.4-3.2
				l14.8-26l5.9-9.6l16-8.1l1.9-0.5l17.1-4.5l2,5.1l-11.6,6l-4.1,4.1v0.2l10.7-3l19.1-0.6l1.8,5.2l-20,4.7l-9.2,3.9L416.4,575.6z"/>
		</g>
	</g>
	<path id="XMLID_7_" fill="#DEDFE0" d="M380,169c-6.7-20.3-41.1-33.2-60.7-34.7c-19.6-1.6-41.7,0.6-47.2,1.4
		c-5.5,0.7-48.1,12.4-59.8,27.4c7.7,40.3,7.7,45.7,15.3,49s6.7,6.9,28.3,7.7s52-2,74.3-2c22.3,0,27,0,35-2.3c8-2.3,12.3,8.3,16-8.3
		C385,190.3,380,169,380,169z"/>
	<path id="XMLID_6_" fill="#FFFFFF" d="M385.7,240.3c0,0,2.3-18.7,3.3-36.3s-9-35-9-35c-5.7,15.7-6.1,41.3-38.7,39.3
		s-21.6-77-21.6-77s-12.9-3.7-24.8-3.7c-11.9,0-23.2,4-23.2,4s10.7,77.3-17.3,78.7c-28,1.3-39.7-34.7-42-47.3
		c-8.7,11-13,32.3-12.7,41.7c0.3,9.3,6.3,35.7,6.3,35.7s50-15,85.7-12.7C327.3,230,385.7,240.3,385.7,240.3z"/>
	<path id="XMLID_4_" fill="#939598" d="M379.2,255.4c10.8,0.6,24.8-13-3.2-24.7c-28-11.7-62-11-81-11s-65,4.4-90.7,17.9
		c-13.7,7.1-5.6,18.9,9.5,20.2c-1.5-10.5-1.5-10.5-1.5-10.5S266.3,234,295,234s85.3,12,85.3,12L379.2,255.4z"/>
</g>
<g id="XMLID_26_">
	
		<text id="XMLID_40_" transform="matrix(1 0 0 1 824.1718 427.771)" font-family="'TitilliumWeb-Bold'" font-size="50.7315px" letter-spacing="2">UNDER</text>
	
		<text id="XMLID_34_" transform="matrix(1 0 0 1 800.2265 375.6387)" font-family="'TitilliumWeb-Bold'" font-size="50.7315px" letter-spacing="2">WEBSITE</text>
	<text id="XMLID_33_" transform="matrix(1 0 0 1 719.7421 480.5649)"><tspan x="0" y="0" font-family="'TitilliumWeb-Bold'" font-size="50.7315px" letter-spacing="2">C</tspan><tspan x="29.8" y="0" font-family="'TitilliumWeb-Bold'" font-size="50.7315px" letter-spacing="2">ONSTRUCTION</tspan></text>
	<polygon id="XMLID_39_" points="681.7,355.5 681.7,323 714.3,323 714.3,309.9 668.7,309.9 668.7,355.5 681.7,355.5 	"/>
	<polygon id="XMLID_35_" points="1153.5,355.5 1153.5,323 1120.9,323 1120.9,309.9 1166.5,309.9 1166.5,355.5 1153.5,355.5 	"/>
	<polygon id="XMLID_43_" points="681.7,480.6 681.7,513.1 714.3,513.1 714.3,526.2 668.7,526.2 668.7,480.6 681.7,480.6 	"/>
	<polygon id="XMLID_37_" points="1153.5,480.6 1153.5,513.1 1120.9,513.1 1120.9,526.2 1166.5,526.2 1166.5,480.6 1153.5,480.6 	"/>
</g>
<g id="XMLID_45_">
	<rect id="XMLID_13_" y="907" fill="#FFC709" width="1400" height="73"/>
	<polygon id="XMLID_44_" points="88.1,980 0,980 44,907 132.1,907 	"/>
	<polygon id="XMLID_46_" points="269.2,980 181.1,980 225.2,907 313.3,907 	"/>
	<polygon id="XMLID_47_" points="450.3,980 362.2,980 406.3,907 494.4,907 	"/>
	<polygon id="XMLID_48_" points="631.5,980 543.4,980 587.4,907 675.5,907 	"/>
	<polygon id="XMLID_49_" points="812.6,980 724.5,980 768.5,907 856.6,907 	"/>
	<polygon id="XMLID_50_" points="993.7,980 905.6,980 949.7,907 1037.8,907 	"/>
	<polygon id="XMLID_51_" points="1174.8,980 1086.7,980 1130.8,907 1218.9,907 	"/>
	<polygon id="XMLID_52_" points="1356,980 1267.9,980 1311.9,907 1400,907 	"/>
</g>
<path id="XMLID_53_" fill-rule="evenodd" clip-rule="evenodd" d="M981.3,521.4l-46.7-18c-0.3-0.1-0.7-0.1-1,0.2l0,0
	c-0.3,0.3-0.3,0.7-0.2,1l18,46.7c0.1,0.4,0.5,0.6,0.9,0.6c0.4,0,0.7-0.2,0.9-0.6l5.7-13.7L979,558c1.9-1.9,7-7,8.9-8.9c0,0,0,0,0,0
	l-20.3-20.3l13.7-5.7c0.4-0.1,0.6-0.5,0.6-0.9C981.9,521.9,981.6,521.5,981.3,521.4"/>
</svg>
